# xmcd CD database file
#
# Track frame offsets:
#	150
#	19204
#	42064
#	65180
#	79512
#	97485
#	121493
#	140993
#	165969
#	181170
#	203443
#
# Disc length: 3097 seconds
#
# Revision: 0
# Processed by: cddbd v1.5.2PL0 Copyright (c) Steve Scherf et al.
# Submitted via: CDex 1.70beta2
#
DISCID=960c170b
DTITLE=C-CLAYS - 神凪 -KAN-NAGI-
DYEAR=2008
DGENRE=東方アレンジ
TTITLE0=Iris Joker
TTITLE1=I Want Your Love
TTITLE2=Distancia
TTITLE3=fragmentary dream
TTITLE4=The legend of green eyes
TTITLE5=白い魔法
TTITLE6=Eternally
TTITLE7=Nine Spirit
TTITLE8=Emergency
TTITLE9=Liberation
TTITLE10=Meditation ～ 独弦哀歌
EXTD=YEAR: 2008
EXTT0=
EXTT1=
EXTT2=
EXTT3=
EXTT4=
EXTT5=
EXTT6=
EXTT7=
EXTT8=
EXTT9=
EXTT10=
PLAYORDER=
